<svg width="170" height="30" viewBox="0 0 170 30" fill="none" xmlns="http://www.w3.org/2000/svg">
<path d="M45.0046 14.0898C44.9549 13.6246 44.7454 13.2624 44.3761 13.0032C44.0103 12.744 43.5344 12.6143 42.9485 12.6143C42.5366 12.6143 42.1832 12.6765 41.8885 12.8008C41.5938 12.9251 41.3683 13.0937 41.212 13.3068C41.0558 13.5199 40.9759 13.7631 40.9723 14.0366C40.9723 14.2638 41.0238 14.4609 41.1268 14.6278C41.2333 14.7947 41.3771 14.9368 41.5582 15.054C41.7393 15.1676 41.94 15.2635 42.1602 15.3416C42.3803 15.4197 42.6023 15.4854 42.826 15.5387L43.8487 15.7944C44.2607 15.8903 44.6566 16.0199 45.0366 16.1832C45.4201 16.3466 45.7628 16.5526 46.0646 16.8011C46.37 17.0497 46.6115 17.3498 46.7891 17.7013C46.9666 18.0529 47.0554 18.4648 47.0554 18.9371C47.0554 19.5763 46.892 20.1392 46.5653 20.6257C46.2386 21.1087 45.7663 21.4869 45.1484 21.7603C44.5341 22.0302 43.7901 22.1651 42.9165 22.1651C42.0678 22.1651 41.331 22.0337 40.706 21.771C40.0845 21.5082 39.598 21.1246 39.2464 20.6204C38.8984 20.1161 38.7102 19.5018 38.6818 18.7773H40.6261C40.6545 19.1573 40.7717 19.4734 40.9776 19.7255C41.1836 19.9776 41.4517 20.1658 41.782 20.2901C42.1158 20.4144 42.4886 20.4766 42.9006 20.4766C43.3303 20.4766 43.7067 20.4126 44.0298 20.2848C44.3565 20.1534 44.6122 19.9723 44.7969 19.7415C44.9815 19.5071 45.0756 19.2337 45.0792 18.9212C45.0756 18.6371 44.9922 18.4027 44.8288 18.218C44.6655 18.0298 44.4364 17.8736 44.1417 17.7493C43.8505 17.6214 43.5096 17.5078 43.119 17.4084L41.8778 17.0888C40.9794 16.858 40.2692 16.5082 39.7472 16.0394C39.2287 15.5671 38.9695 14.9403 38.9695 14.1591C38.9695 13.5163 39.1435 12.9535 39.4915 12.4705C39.843 11.9876 40.3207 11.6129 40.9244 11.3466C41.5281 11.0767 42.2116 10.9418 42.9751 10.9418C43.7493 10.9418 44.4276 11.0767 45.0099 11.3466C45.5959 11.6129 46.0558 11.984 46.3896 12.4599C46.7234 12.9322 46.8956 13.4755 46.9062 14.0898H45.0046ZM52.3009 22.1598C51.5019 22.1598 50.8094 21.984 50.2235 21.6325C49.6375 21.2809 49.183 20.7891 48.8598 20.157C48.5402 19.5249 48.3804 18.7862 48.3804 17.9411C48.3804 17.0959 48.5402 16.3555 48.8598 15.7198C49.183 15.0842 49.6375 14.5906 50.2235 14.239C50.8094 13.8874 51.5019 13.7116 52.3009 13.7116C53.0999 13.7116 53.7923 13.8874 54.3783 14.239C54.9642 14.5906 55.417 15.0842 55.7366 15.7198C56.0597 16.3555 56.2213 17.0959 56.2213 17.9411C56.2213 18.7862 56.0597 19.5249 55.7366 20.157C55.417 20.7891 54.9642 21.2809 54.3783 21.6325C53.7923 21.984 53.0999 22.1598 52.3009 22.1598ZM52.3115 20.6151C52.7448 20.6151 53.107 20.4961 53.3982 20.2582C53.6894 20.0167 53.906 19.6935 54.048 19.2887C54.1936 18.8839 54.2664 18.4329 54.2664 17.9357C54.2664 17.435 54.1936 16.9822 54.048 16.5774C53.906 16.169 53.6894 15.8441 53.3982 15.6026C53.107 15.3612 52.7448 15.2404 52.3115 15.2404C51.8676 15.2404 51.4983 15.3612 51.2036 15.6026C50.9124 15.8441 50.694 16.169 50.5484 16.5774C50.4063 16.9822 50.3353 17.435 50.3353 17.9357C50.3353 18.4329 50.4063 18.8839 50.5484 19.2887C50.694 19.6935 50.9124 20.0167 51.2036 20.2582C51.4983 20.4961 51.8676 20.6151 52.3115 20.6151ZM63.0728 18.5589V13.8182H65.0011V22H63.1314V20.5458H63.0462C62.8615 21.0039 62.5579 21.3786 62.1353 21.6697C61.7163 21.9609 61.1996 22.1065 60.5852 22.1065C60.049 22.1065 59.5749 21.9876 59.163 21.7496C58.7546 21.5082 58.435 21.1584 58.2042 20.7003C57.9734 20.2386 57.858 19.6811 57.858 19.0277V13.8182H59.7862V18.7294C59.7862 19.2479 59.9283 19.6598 60.2124 19.9652C60.4964 20.2706 60.8693 20.4233 61.331 20.4233C61.6151 20.4233 61.8903 20.354 62.1566 20.2156C62.4229 20.0771 62.6413 19.8711 62.8118 19.5977C62.9858 19.3207 63.0728 18.9744 63.0728 18.5589ZM68.9122 11.0909V22H66.9839V11.0909H68.9122ZM75.0392 13.8182V15.3097H70.2026V13.8182H75.0392ZM71.4118 22V13.0458C71.4118 12.4954 71.5254 12.0373 71.7527 11.6715C71.9835 11.3058 72.2924 11.0323 72.6795 10.8512C73.0666 10.6701 73.4963 10.5795 73.9686 10.5795C74.3024 10.5795 74.5989 10.6062 74.8581 10.6594C75.1174 10.7127 75.3091 10.7607 75.4334 10.8033L75.0499 12.2947C74.9682 12.2699 74.8652 12.245 74.7409 12.2202C74.6167 12.1918 74.4782 12.1776 74.3255 12.1776C73.9668 12.1776 73.7129 12.2646 73.5637 12.4386C73.4181 12.609 73.3453 12.854 73.3453 13.1737V22H71.4118ZM81.7642 18.5589V13.8182H83.6925V22H81.8228V20.5458H81.7376C81.5529 21.0039 81.2493 21.3786 80.8267 21.6697C80.4077 21.9609 79.891 22.1065 79.2766 22.1065C78.7404 22.1065 78.2663 21.9876 77.8544 21.7496C77.446 21.5082 77.1264 21.1584 76.8956 20.7003C76.6648 20.2386 76.5494 19.6811 76.5494 19.0277V13.8182H78.4776V18.7294C78.4776 19.2479 78.6197 19.6598 78.9038 19.9652C79.1879 20.2706 79.5607 20.4233 80.0224 20.4233C80.3065 20.4233 80.5817 20.354 80.848 20.2156C81.1143 20.0771 81.3327 19.8711 81.5032 19.5977C81.6772 19.3207 81.7642 18.9744 81.7642 18.5589ZM87.6036 11.0909V22H85.6753V11.0909H87.6036ZM89.6717 11.0909H92.09L95.3287 18.9957H95.4565L98.6951 11.0909H101.113V22H99.2172V14.5053H99.1159L96.101 21.968H94.6841L91.6692 14.4893H91.568V22H89.6717V11.0909ZM106.749 22.1598C105.95 22.1598 105.258 21.984 104.672 21.6325C104.086 21.2809 103.631 20.7891 103.308 20.157C102.988 19.5249 102.829 18.7862 102.829 17.9411C102.829 17.0959 102.988 16.3555 103.308 15.7198C103.631 15.0842 104.086 14.5906 104.672 14.239C105.258 13.8874 105.95 13.7116 106.749 13.7116C107.548 13.7116 108.241 13.8874 108.827 14.239C109.412 14.5906 109.865 15.0842 110.185 15.7198C110.508 16.3555 110.67 17.0959 110.67 17.9411C110.67 18.7862 110.508 19.5249 110.185 20.157C109.865 20.7891 109.412 21.2809 108.827 21.6325C108.241 21.984 107.548 22.1598 106.749 22.1598ZM106.76 20.6151C107.193 20.6151 107.555 20.4961 107.846 20.2582C108.138 20.0167 108.354 19.6935 108.496 19.2887C108.642 18.8839 108.715 18.4329 108.715 17.9357C108.715 17.435 108.642 16.9822 108.496 16.5774C108.354 16.169 108.138 15.8441 107.846 15.6026C107.555 15.3612 107.193 15.2404 106.76 15.2404C106.316 15.2404 105.947 15.3612 105.652 15.6026C105.361 15.8441 105.142 16.169 104.997 16.5774C104.855 16.9822 104.784 17.435 104.784 17.9357C104.784 18.4329 104.855 18.8839 104.997 19.2887C105.142 19.6935 105.361 20.0167 105.652 20.2582C105.947 20.4961 106.316 20.6151 106.76 20.6151ZM119.336 13.8182L116.422 22H114.292L111.378 13.8182H113.434L115.314 19.896H115.4L117.285 13.8182H119.336ZM120.67 22V13.8182H122.599V22H120.67ZM121.64 12.657C121.335 12.657 121.072 12.5558 120.852 12.3533C120.631 12.1474 120.521 11.9006 120.521 11.6129C120.521 11.3217 120.631 11.0749 120.852 10.8725C121.072 10.6665 121.335 10.5636 121.64 10.5636C121.949 10.5636 122.212 10.6665 122.428 10.8725C122.648 11.0749 122.759 11.3217 122.759 11.6129C122.759 11.9006 122.648 12.1474 122.428 12.3533C122.212 12.5558 121.949 12.657 121.64 12.657ZM128.204 22.1598C127.383 22.1598 126.675 21.9893 126.078 21.6484C125.485 21.304 125.029 20.8175 124.709 20.1889C124.39 19.5568 124.23 18.8129 124.23 17.957C124.23 17.1154 124.39 16.3768 124.709 15.7411C125.033 15.1019 125.484 14.6048 126.062 14.2496C126.641 13.891 127.321 13.7116 128.103 13.7116C128.607 13.7116 129.083 13.7933 129.53 13.9567C129.981 14.1165 130.379 14.3651 130.723 14.7024C131.071 15.0398 131.345 15.4695 131.544 15.9915C131.742 16.5099 131.842 17.1278 131.842 17.8452V18.4364H125.136V17.1367H129.994C129.99 16.7674 129.91 16.4389 129.754 16.1513C129.598 15.8601 129.379 15.631 129.099 15.4641C128.822 15.2972 128.498 15.2138 128.129 15.2138C127.735 15.2138 127.389 15.3097 127.09 15.5014C126.792 15.6896 126.56 15.9382 126.393 16.2472C126.229 16.5526 126.146 16.8881 126.142 17.2539V18.3885C126.142 18.8643 126.229 19.2727 126.403 19.6136C126.577 19.951 126.821 20.2102 127.133 20.3913C127.446 20.5689 127.811 20.6577 128.23 20.6577C128.511 20.6577 128.765 20.6186 128.992 20.5405C129.219 20.4588 129.416 20.3398 129.583 20.1836C129.75 20.0273 129.876 19.8338 129.962 19.603L131.762 19.8054C131.648 20.2812 131.432 20.6967 131.112 21.0518C130.796 21.4034 130.391 21.6768 129.898 21.8722C129.404 22.0639 128.839 22.1598 128.204 22.1598ZM139.94 15.9808L138.182 16.1726C138.132 15.995 138.045 15.8281 137.921 15.6719C137.8 15.5156 137.637 15.3896 137.431 15.2937C137.225 15.1978 136.973 15.1499 136.675 15.1499C136.273 15.1499 135.936 15.2369 135.662 15.4109C135.393 15.5849 135.259 15.8104 135.263 16.0874C135.259 16.3253 135.346 16.5188 135.524 16.668C135.705 16.8171 136.003 16.9396 136.419 17.0355L137.814 17.3338C138.589 17.5007 139.164 17.7653 139.54 18.1275C139.92 18.4897 140.112 18.9638 140.116 19.5497C140.112 20.0646 139.961 20.5192 139.663 20.9134C139.368 21.304 138.958 21.6094 138.432 21.8295C137.907 22.0497 137.303 22.1598 136.621 22.1598C135.62 22.1598 134.814 21.9503 134.203 21.5312C133.592 21.1087 133.228 20.521 133.111 19.7681L134.991 19.587C135.077 19.9563 135.258 20.2351 135.535 20.4233C135.812 20.6115 136.172 20.7056 136.616 20.7056C137.074 20.7056 137.442 20.6115 137.719 20.4233C137.999 20.2351 138.139 20.0025 138.139 19.7255C138.139 19.4911 138.049 19.2976 137.868 19.1449C137.69 18.9922 137.413 18.875 137.037 18.7933L135.641 18.5004C134.856 18.337 134.276 18.0618 133.899 17.6747C133.523 17.2841 133.336 16.7905 133.34 16.1939C133.336 15.6896 133.473 15.2528 133.75 14.8835C134.031 14.5107 134.42 14.223 134.917 14.0206C135.417 13.8146 135.994 13.7116 136.648 13.7116C137.607 13.7116 138.361 13.9158 138.912 14.3242C139.466 14.7326 139.808 15.2848 139.94 15.9808ZM142.893 22.1172C142.57 22.1172 142.293 22.0036 142.062 21.7763C141.832 21.549 141.718 21.272 141.722 20.9453C141.718 20.6257 141.832 20.3523 142.062 20.125C142.293 19.8977 142.57 19.7841 142.893 19.7841C143.206 19.7841 143.478 19.8977 143.708 20.125C143.943 20.3523 144.062 20.6257 144.065 20.9453C144.062 21.1619 144.005 21.359 143.895 21.5366C143.788 21.7141 143.646 21.8562 143.469 21.9627C143.295 22.0657 143.103 22.1172 142.893 22.1172Z" fill="white"/>
<path d="M149.052 12.0909V23H147.076V12.0909H149.052ZM160.157 12.0909V23H158.399L153.259 15.5692H153.168V23H151.192V12.0909H152.961L158.096 19.527H158.191V12.0909H160.157Z" fill="#FE0509"/>
<path d="M14.4458 18.3351H14.463C14.8591 18.3351 15.1801 18.0551 15.1801 17.71C15.1801 17.3648 14.859 17.085 14.463 17.085H14.4458C14.0497 17.085 13.7287 17.3649 13.7287 17.71C13.7286 18.0552 14.0497 18.3351 14.4458 18.3351Z" fill="#FDD700"/>
<path d="M7.05274 18.3348H12.3855C12.7816 18.3348 13.1026 18.0549 13.1026 17.7098C13.1026 17.3645 12.7815 17.0847 12.3855 17.0847H7.05274C6.65662 17.0847 6.3356 17.3646 6.3356 17.7098C6.3356 18.0549 6.65676 18.3348 7.05274 18.3348Z" fill="#FDD700"/>
<path d="M21.7851 20.8349H21.8021C22.1982 20.8349 22.5193 20.555 22.5193 20.2099C22.5193 19.8647 22.1981 19.5849 21.8021 19.5849H21.7851C21.389 19.5849 21.068 19.8647 21.068 20.2099C21.068 20.555 21.3891 20.8349 21.7851 20.8349Z" fill="#FDD700"/>
<path d="M7.05274 20.8347H19.7249C20.121 20.8347 20.442 20.5548 20.442 20.2097C20.442 19.8644 20.1209 19.5847 19.7249 19.5847H7.05274C6.65662 19.5847 6.3356 19.8645 6.3356 20.2097C6.3356 20.5548 6.65676 20.8347 7.05274 20.8347Z" fill="#FDD700"/>
<path d="M7.05274 23.3345H14.941V26.875C14.941 27.2201 15.2621 27.5001 15.6581 27.5001C16.0542 27.5001 16.3752 27.2201 16.3752 26.875V23.3345H24.2633C24.6594 23.3345 24.9804 23.0546 24.9804 22.7095C24.9805 22.3642 24.6594 22.0845 24.2633 22.0845H7.05274C6.65662 22.0845 6.3356 22.3643 6.3356 22.7095C6.3356 23.0546 6.65669 23.3345 7.05274 23.3345Z" fill="#FDD700"/>
<path d="M29.9966 11.3981C29.9955 11.3887 29.9935 11.3794 29.992 11.3702C29.9902 11.3593 29.9887 11.3484 29.9863 11.3376C29.9839 11.327 29.9806 11.3168 29.9776 11.3064C29.9748 11.297 29.9725 11.2876 29.9693 11.2783C29.9658 11.2681 29.9614 11.2584 29.9572 11.2483C29.9534 11.2391 29.9499 11.2298 29.9456 11.2206C29.9412 11.2114 29.9359 11.2023 29.931 11.1933C29.926 11.1839 29.9211 11.1743 29.9154 11.1652C29.9101 11.1565 29.904 11.1483 29.8983 11.1398C29.892 11.1307 29.8862 11.1215 29.8793 11.1127C29.8722 11.1034 29.8642 11.0947 29.8566 11.0857C29.8503 11.0784 29.8444 11.0708 29.8376 11.0635C29.8226 11.0477 29.8069 11.0325 29.7904 11.018C29.7903 11.0178 29.7902 11.0177 29.79 11.0176C29.7897 11.0174 29.7892 11.017 29.7888 11.0167C29.7725 11.0024 29.7553 10.989 29.7374 10.9762C29.7293 10.9705 29.7208 10.9655 29.7125 10.96C29.7021 10.9532 29.6919 10.9462 29.681 10.9398C29.6712 10.9341 29.661 10.9291 29.6509 10.9239C29.6409 10.9186 29.6312 10.9131 29.6207 10.9083C29.6107 10.9036 29.6002 10.8996 29.5899 10.8954C29.5791 10.8909 29.5682 10.8861 29.557 10.8821C29.5472 10.8785 29.5372 10.8757 29.5272 10.8726C29.5151 10.8688 29.5031 10.8648 29.4907 10.8614C29.4809 10.8589 29.471 10.8571 29.4612 10.8549C29.4484 10.852 29.4357 10.8489 29.4227 10.8467C29.4117 10.8447 29.4004 10.8436 29.3893 10.8422C29.3773 10.8407 29.3655 10.8387 29.3532 10.8377C29.3341 10.8361 29.3151 10.8355 29.2959 10.8352C29.2916 10.8351 29.2873 10.8346 29.2828 10.8346H6.60994L28.1964 4.79041C28.2144 4.78543 28.2317 4.77927 28.2489 4.77312C28.2531 4.77166 28.2573 4.77054 28.2614 4.76914C28.2886 4.75888 28.3144 4.74716 28.3395 4.73445C28.3456 4.7314 28.3514 4.72789 28.3573 4.72472C28.3769 4.71394 28.3958 4.70263 28.414 4.69039C28.4203 4.68611 28.4266 4.68207 28.4327 4.67767C28.4552 4.66156 28.4768 4.64462 28.4967 4.6264C28.4992 4.62412 28.5013 4.62154 28.5039 4.61908C28.5217 4.6022 28.5383 4.58451 28.5537 4.56623C28.5586 4.56037 28.5634 4.55445 28.5681 4.54853C28.5851 4.52679 28.6011 4.50459 28.6149 4.48138C28.6149 4.48138 28.615 4.48115 28.6151 4.48103C28.6154 4.48039 28.6157 4.47974 28.6161 4.47898C28.6265 4.4614 28.6358 4.44335 28.6442 4.4249C28.6483 4.41593 28.6513 4.40697 28.6548 4.398C28.659 4.38763 28.6633 4.37749 28.6668 4.36689C28.6702 4.35664 28.6725 4.34626 28.6753 4.33589C28.6778 4.3264 28.6807 4.31697 28.6827 4.30736C28.6848 4.2971 28.6861 4.28685 28.6876 4.27648C28.6891 4.26658 28.691 4.25662 28.6919 4.24654C28.6928 4.23681 28.6929 4.22708 28.6932 4.21747C28.6936 4.20675 28.6944 4.19597 28.6942 4.18507C28.694 4.17581 28.6929 4.1665 28.6923 4.15712C28.6914 4.14611 28.691 4.13515 28.6895 4.12408C28.6883 4.11382 28.6858 4.10369 28.6839 4.09343C28.682 4.08353 28.6806 4.07368 28.6782 4.06372C28.6737 4.04591 28.6682 4.02833 28.662 4.01087C28.6612 4.0087 28.6608 4.00648 28.66 4.00431L27.3439 0.433944C27.2858 0.276092 27.158 0.144841 26.9888 0.0691377C26.8198 -0.00668292 26.6228 -0.0207455 26.4418 0.0299383L22.3484 1.17615C22.3464 1.1768 22.3443 1.17727 22.3424 1.17785L16.8846 2.70598C16.8836 2.70622 16.8827 2.70651 16.8817 2.70675L11.4287 4.23376C11.424 4.23494 11.4192 4.23634 11.4146 4.23769L5.96245 5.7643C5.9605 5.76494 5.95862 5.76541 5.95673 5.76588L0.498918 7.29419C0.476128 7.30057 0.453673 7.3079 0.431622 7.31616C0.429201 7.31715 0.426916 7.31821 0.424294 7.31921C0.405402 7.32653 0.386914 7.33444 0.368762 7.34317C0.36567 7.34475 0.362779 7.34651 0.359753 7.34803C0.342543 7.35671 0.325466 7.36561 0.30913 7.37546C0.307045 7.37669 0.305096 7.37815 0.303012 7.37944C0.28607 7.38993 0.26933 7.40083 0.253397 7.4126C0.252254 7.41348 0.25138 7.4143 0.250237 7.41518C0.233765 7.42749 0.21763 7.44044 0.202235 7.45427C0.201025 7.45538 0.200084 7.45643 0.198941 7.4576C0.184083 7.4712 0.169696 7.48514 0.156048 7.50009C0.152956 7.50354 0.150334 7.50718 0.147376 7.51057C0.136216 7.52341 0.125056 7.53618 0.115039 7.54989C0.10213 7.56723 0.0900964 7.58528 0.0792052 7.60386C0.0682468 7.62255 0.0583639 7.64159 0.0496241 7.66087C0.0433045 7.67481 0.0383968 7.68882 0.0332874 7.70288C0.0313377 7.70839 0.0288503 7.7136 0.0271023 7.71899C0.0214551 7.73628 0.0170851 7.7538 0.0131858 7.77126C0.0125807 7.77354 0.0118412 7.776 0.0113706 7.77835C0.00753849 7.79628 0.00511834 7.81421 0.00323592 7.83202C0.002967 7.83431 0.00242921 7.83665 0.00222752 7.83882C0.000748474 7.85575 0.000277914 7.87274 0.000277914 7.88962C0.000277914 7.89319 -5.83421e-05 7.89671 8.88731e-06 7.90011C0.000345034 7.91575 0.00182421 7.93122 0.00350495 7.94675C0.00397555 7.95161 0.0041099 7.95647 0.00464773 7.96122C0.00666461 7.9761 0.00982439 7.99093 0.0130514 8.00552C0.0141943 8.01091 0.0148667 8.01624 0.0161441 8.02163C0.0211863 8.04149 0.0271697 8.0613 0.0343632 8.08069L1.31589 11.5571V15.2098C1.31589 15.2251 1.31723 15.2401 1.31851 15.2552C1.31892 15.2602 1.31878 15.2653 1.31939 15.2701C1.32093 15.285 1.32389 15.2995 1.32671 15.3141C1.32779 15.3196 1.32839 15.3251 1.3296 15.3306C1.33283 15.3449 1.33707 15.3587 1.34137 15.3726C1.34312 15.3783 1.34453 15.3842 1.34648 15.3899C1.35098 15.4031 1.35656 15.416 1.36214 15.4288C1.3649 15.4351 1.36712 15.4414 1.37001 15.4477C1.37572 15.4598 1.38245 15.4716 1.38904 15.4833C1.39273 15.49 1.39616 15.4967 1.39999 15.5033C1.40719 15.5149 1.41512 15.5259 1.42292 15.5371C1.42742 15.5433 1.43132 15.5498 1.43603 15.5559C1.44598 15.5688 1.4568 15.5811 1.46769 15.5935C1.47119 15.5974 1.47415 15.6014 1.47778 15.6053C1.50817 15.6377 1.54212 15.6673 1.57929 15.6938C1.58461 15.6976 1.59019 15.7007 1.5957 15.7044C1.60874 15.7131 1.62185 15.7219 1.63563 15.73C1.64383 15.7347 1.65237 15.7388 1.66064 15.7431C1.67227 15.7494 1.68384 15.7557 1.69587 15.7613C1.70481 15.7654 1.71416 15.769 1.72337 15.7728C1.73527 15.7778 1.7471 15.783 1.7594 15.7874C1.76861 15.7908 1.77796 15.7933 1.7873 15.7964C1.80001 15.8004 1.81251 15.8046 1.82556 15.808C1.8351 15.8106 1.84485 15.8123 1.8544 15.8145C1.86737 15.8174 1.88015 15.8205 1.89339 15.8228C1.90495 15.8248 1.91658 15.826 1.92808 15.8275C1.93958 15.8289 1.9508 15.8308 1.9625 15.8317C1.98509 15.8337 2.00788 15.8347 2.03054 15.8348C2.03141 15.8348 2.03208 15.8349 2.03296 15.8349H3.46703V26.1432C3.46703 28.2698 5.45211 30 7.89213 30H23.4237C25.8637 30 27.8488 28.2697 27.8488 26.1432V15.8347H29.2828C29.679 15.8347 30 15.5548 30 15.2097V11.4595C30.0002 11.4391 29.9989 11.4186 29.9966 11.3981ZM21.8149 12.0848L18.9465 14.5849H15.238L18.1065 12.0848H21.8149ZM16.078 12.0848L13.2095 14.5849H9.5012L12.3696 12.0848H16.078ZM26.1977 1.41129L26.7648 2.94985L24.4324 1.90559L26.1977 1.41129ZM22.5012 2.44624L26.1094 4.06185L22.5789 5.05033L18.9705 3.43495L22.5012 2.44624ZM17.0391 3.97577L20.6474 5.59115L17.1167 6.57975L13.5086 4.96425L17.0391 3.97577ZM11.5776 5.50496L15.1858 7.12046L11.6549 8.10917L8.04676 6.49368L11.5776 5.50496ZM6.11546 7.03432L9.72366 8.64982L6.19325 9.6383L2.58484 8.02292L6.11546 7.03432ZM1.92936 9.13503L4.26188 10.1792L2.49651 10.6735L1.92936 9.13503ZM2.75009 13.7009V12.0848H4.60435L2.75009 13.7009ZM4.1843 14.5849H3.76445L6.63279 12.0848H10.3411L7.47269 14.5849H4.1843ZM26.4146 26.1433C26.4146 27.5807 25.0729 28.7501 23.4239 28.7501H7.89227C6.24313 28.7501 4.9015 27.5807 4.9015 26.1433V15.835H26.4147L26.4146 26.1433ZM24.6833 14.5849H20.975L23.8434 12.0848H27.5517L24.6833 14.5849ZM28.5658 14.5849H27.1318H26.7117L28.5658 12.9688V14.5849Z" fill="#FDD700"/>
</svg>
